# xmcd CD database file
#
# Track frame offsets:
#	150
#	31911
#	78462
#	123884
#	145790
#	176746
#	213140
#
# Disc length: 3292 seconds
#
# Revision: 0
# Processed by: cddbd v1.5.2PL0 Copyright (c) Steve Scherf et al.
# Submitted via: CDex 1.70beta2
#
DISCID=550cda07
DTITLE=One Way Out Blues Connection - B-Day Session 2008
DYEAR=2008
DGENRE=Blues
TTITLE0=One Way Out
TTITLE1=T-Bone's Way
TTITLE2=Long Distance Call
TTITLE3=Help Me
TTITLE4=Black Magic Woman
TTITLE5=Awh Babe
TTITLE6=I Feel So Good
EXTD=YEAR: 2008
EXTT0=
EXTT1=
EXTT2=
EXTT3=
EXTT4=
EXTT5=
EXTT6=
PLAYORDER=
